# This file uses centimeters as units for non-parametric coordinates.

mtllib cylinder-projection.mtl
g default
v 7.143210 -10.796912 -0.000000
v 6.793596 -10.796912 -2.207373
v 5.778979 -10.796912 -4.198673
v 4.198674 -10.796912 -5.778978
v 2.207374 -10.796912 -6.793596
v 0.000000 -10.796912 -7.143210
v -2.207373 -10.796912 -6.793597
v -4.198673 -10.796912 -5.778979
v -5.778979 -10.796910 -4.198675
v -6.793598 -10.796910 -2.207374
v -7.143212 -10.796912 -0.000000
v -6.793599 -10.796912 2.207373
v -5.778980 -10.796912 4.198675
v -4.198675 -10.796912 5.778980
v -2.207375 -10.796912 6.793599
v -0.000001 -10.796912 7.143213
v 2.207374 -10.796912 6.793599
v 4.198675 -10.796912 5.778981
v 5.778980 -10.796912 4.198676
v 6.793599 -10.796912 2.207375
v 7.143210 24.796914 0.000000
v 6.793596 24.796914 -2.207373
v 5.778979 24.796914 -4.198673
v 4.198674 24.796914 -5.778978
v 2.207374 24.796914 -6.793596
v 0.000000 24.796914 -7.143210
v -2.207373 24.796914 -6.793597
v -4.198673 24.796914 -5.778979
v -5.778979 24.796912 -4.198675
v -6.793598 24.796912 -2.207374
v -7.143212 24.796914 -0.000000
v -6.793599 24.796914 2.207373
v -5.778980 24.796914 4.198675
v -4.198675 24.796914 5.778980
v -2.207375 24.796914 6.793599
v -0.000001 24.796914 7.143213
v 2.207374 24.796914 6.793599
v 4.198675 24.796914 5.778981
v 5.778980 24.796914 4.198676
v 6.793599 24.796914 2.207375
v 7.208472 24.796914 0.000000
v 6.855665 24.796914 -2.227540
v 5.831777 24.796914 -4.237034
v 4.237034 24.796914 -5.831777
v 2.227541 24.796914 -6.855666
v 0.000000 24.796914 -7.208474
v -2.227541 24.796914 -6.855666
v -4.237035 24.796914 -5.831779
v -5.831779 24.796914 -4.237035
v -6.855667 24.796914 -2.227541
v -7.208476 24.796914 0.000000
v -6.855668 24.796914 2.227542
v -5.831779 24.796914 4.237036
v -4.237036 24.796914 5.831780
v -2.227541 24.796914 6.855669
v 0.000000 24.796914 7.208476
v 2.227542 24.796914 6.855668
v 4.237037 24.796914 5.831779
v 5.831780 24.796914 4.237036
v 6.855669 24.796914 2.227541
v 7.208472 -10.796912 -0.000000
v 6.855665 -10.796912 -2.227540
v 5.831777 -10.796912 -4.237034
v 4.237034 -10.796912 -5.831777
v 2.227541 -10.796912 -6.855666
v 0.000000 -10.796912 -7.208474
v -2.227541 -10.796912 -6.855666
v -4.237035 -10.796912 -5.831779
v -5.831779 -10.796912 -4.237035
v -6.855667 -10.796912 -2.227541
v -7.208476 -10.796912 -0.000000
v -6.855668 -10.796912 2.227542
v -5.831779 -10.796912 4.237036
v -4.237036 -10.796912 5.831780
v -2.227541 -10.796912 6.855669
v 0.000000 -10.796912 7.208476
v 2.227542 -10.796912 6.855668
v 4.237037 -10.796912 5.831779
v 5.831780 -10.796912 4.237036
v 6.855669 -10.796912 2.227541
vt 0.000000 0.199984
vt 0.000000 0.249984
vt 1.000000 0.249984
vt 1.000000 0.199984
vt 0.000000 0.149984
vt 1.000000 0.149984
vt 0.000000 0.099984
vt 1.000000 0.099984
vt 0.000000 0.049984
vt 0.000000 0.999984
vt 1.000000 0.999984
vt 0.000000 0.949984
vt 1.000000 0.949984
vt 0.000000 0.899984
vt 1.000000 0.899984
vt 0.000000 0.849984
vt 1.000000 0.849984
vt 0.000000 0.799984
vt 1.000000 0.799984
vt 0.000000 0.749984
vt 1.000000 0.749984
vt 0.000000 0.699984
vt 1.000000 0.699984
vt 0.000000 0.649984
vt 1.000000 0.649984
vt 0.000000 0.599984
vt 1.000000 0.599984
vt 0.000000 0.549984
vt 1.000000 0.549984
vt 0.000000 0.499984
vt 1.000000 0.499984
vt 0.000000 0.449984
vt 1.000000 0.449984
vt 0.000000 0.399984
vt 1.000000 0.399984
vt 0.000000 0.349984
vt 1.000000 0.349984
vt 0.000000 0.299984
vt 1.000000 0.299984
vt 1.000000 0.249984
vt 1.000000 0.199984
vt 1.000000 0.149984
vt 1.000000 0.099984
vt 1.000000 0.999984
vt 1.000000 0.949984
vt 1.000000 0.899984
vt 1.000000 0.849984
vt 1.000000 0.799984
vt 1.000000 0.749984
vt 1.000000 0.699984
vt 1.000000 0.649984
vt 1.000000 0.599984
vt 1.000000 0.549984
vt 1.000000 0.499984
vt 1.000000 0.449984
vt 1.000000 0.399984
vt 1.000000 0.349984
vt 1.000000 0.299984
vt 0.000000 0.249984
vt 0.000000 0.199984
vt 0.000000 0.149984
vt 0.000000 0.099984
vt 0.000000 0.999984
vt 0.000000 0.949984
vt 0.000000 0.899984
vt 0.000000 0.849984
vt 0.000000 0.799984
vt 0.000000 0.749984
vt 0.000000 0.699984
vt 0.000000 0.649984
vt 0.000000 0.599984
vt 0.000000 0.549984
vt 0.000000 0.499984
vt 0.000000 0.449984
vt 0.000000 0.399984
vt 0.000000 0.349984
vt 0.000000 0.299984
vt 1.000000 -0.000016
vt 1.000000 0.049984
vt 1.000000 -0.000016
vt 1.000000 0.049984
vt 0.000000 -0.000016
vt 0.000000 0.049984
vt 0.000000 -0.000016
vn -0.951057 0.000000 0.309017
vn -1.000000 0.000000 0.000001
vn -1.000000 0.000000 0.000001
vn -0.951057 0.000000 0.309017
vn -0.809017 0.000000 0.587785
vn -0.809017 0.000000 0.587785
vn -0.587785 0.000000 0.809017
vn -0.587785 0.000000 0.809017
vn -0.309017 0.000000 0.951056
vn -0.309017 0.000000 0.951056
vn 0.000000 0.000000 1.000000
vn 0.000000 0.000000 1.000000
vn 0.309017 0.000000 0.951057
vn 0.309017 0.000000 0.951057
vn 0.587785 0.000000 0.809017
vn 0.587785 0.000000 0.809017
vn 0.809017 0.000000 0.587785
vn 0.809017 0.000000 0.587785
vn 0.951056 0.000000 0.309017
vn 0.951056 0.000000 0.309017
vn 1.000000 0.000000 0.000000
vn 1.000000 0.000000 0.000000
vn 0.951057 0.000000 -0.309017
vn 0.951057 0.000000 -0.309017
vn 0.809017 0.000000 -0.587785
vn 0.809017 0.000000 -0.587785
vn 0.587785 0.000000 -0.809017
vn 0.587785 0.000000 -0.809017
vn 0.309017 0.000000 -0.951056
vn 0.309017 0.000000 -0.951056
vn 0.000000 0.000000 -1.000000
vn 0.000000 0.000000 -1.000000
vn -0.309017 0.000000 -0.951057
vn -0.309017 0.000000 -0.951057
vn -0.587785 0.000000 -0.809017
vn -0.587785 0.000000 -0.809017
vn -0.809017 0.000000 -0.587785
vn -0.809017 0.000000 -0.587785
vn -0.951057 0.000000 -0.309016
vn -0.951057 0.000000 -0.309016
vn 0.000000 1.000000 -0.000001
vn 0.000000 1.000000 -0.000001
vn 0.000000 1.000000 -0.000001
vn 0.000000 1.000000 -0.000001
vn 0.000000 1.000000 0.000001
vn 0.000000 1.000000 0.000001
vn 0.000000 1.000000 0.000008
vn 0.000000 1.000000 0.000008
vn 0.000000 1.000000 0.000011
vn 0.000000 1.000000 0.000011
vn 0.000000 1.000000 0.000001
vn 0.000000 1.000000 0.000001
vn 0.000000 1.000000 -0.000002
vn 0.000000 1.000000 -0.000002
vn 0.000006 1.000000 0.000011
vn 0.000006 1.000000 0.000011
vn 0.000023 1.000000 0.000022
vn 0.000023 1.000000 0.000022
vn 0.000026 1.000000 0.000012
vn 0.000026 1.000000 0.000012
vn 0.000009 1.000000 0.000002
vn 0.000009 1.000000 0.000002
vn 0.000000 1.000000 0.000001
vn 0.000000 1.000000 0.000001
vn 0.000000 1.000000 -0.000003
vn 0.000000 1.000000 -0.000003
vn 0.000000 1.000000 -0.000004
vn 0.000000 1.000000 -0.000004
vn 0.000000 1.000000 -0.000000
vn 0.000000 1.000000 -0.000000
vn 0.000000 1.000000 -0.000004
vn 0.000000 1.000000 -0.000004
vn 0.000000 1.000000 -0.000016
vn 0.000000 1.000000 -0.000016
vn 0.000000 1.000000 -0.000010
vn 0.000000 1.000000 -0.000010
vn 0.000000 1.000000 0.000001
vn 0.000000 1.000000 0.000001
vn 0.000000 1.000000 0.000001
vn 0.000000 1.000000 0.000001
vn 0.951057 0.000000 -0.309017
vn 1.000000 -0.000000 -0.000001
vn 1.000000 -0.000000 -0.000001
vn 0.951057 0.000000 -0.309017
vn 0.809017 0.000000 -0.587785
vn 0.809017 0.000000 -0.587785
vn 0.587785 0.000000 -0.809017
vn 0.587785 0.000000 -0.809017
vn 0.309017 0.000000 -0.951056
vn 0.309017 0.000000 -0.951056
vn 0.000000 0.000000 -1.000000
vn 0.000000 0.000000 -1.000000
vn -0.309017 0.000000 -0.951057
vn -0.309017 0.000000 -0.951057
vn -0.587785 0.000000 -0.809017
vn -0.587785 0.000000 -0.809017
vn -0.809017 0.000000 -0.587785
vn -0.809017 0.000000 -0.587785
vn -0.951056 0.000000 -0.309017
vn -0.951056 0.000000 -0.309017
vn -1.000000 0.000000 -0.000000
vn -1.000000 0.000000 -0.000000
vn -0.951056 0.000000 0.309017
vn -0.951056 0.000000 0.309017
vn -0.809017 0.000000 0.587785
vn -0.809017 0.000000 0.587785
vn -0.587785 0.000000 0.809017
vn -0.587785 0.000000 0.809017
vn -0.309017 0.000000 0.951057
vn -0.309017 0.000000 0.951057
vn 0.000000 0.000000 1.000000
vn 0.000000 0.000000 1.000000
vn 0.309017 0.000000 0.951056
vn 0.309017 0.000000 0.951056
vn 0.587785 0.000000 0.809017
vn 0.587785 0.000000 0.809017
vn 0.809017 0.000000 0.587785
vn 0.809017 0.000000 0.587785
vn 0.951057 -0.000000 0.309016
vn 0.951057 -0.000000 0.309016
vn 0.000000 -1.000000 -0.000001
vn 0.000000 -1.000000 0.000001
vn 0.000000 -1.000000 0.000001
vn 0.000000 -1.000000 -0.000001
vn 0.000000 -1.000000 -0.000001
vn 0.000000 -1.000000 -0.000001
vn 0.000000 -1.000000 -0.000003
vn 0.000000 -1.000000 -0.000003
vn 0.000000 -1.000000 -0.000011
vn 0.000000 -1.000000 -0.000011
vn 0.000000 -1.000000 0.000001
vn 0.000000 -1.000000 0.000001
vn 0.000000 -1.000000 -0.000001
vn 0.000000 -1.000000 -0.000001
vn 0.000003 -1.000000 0.000001
vn 0.000003 -1.000000 0.000001
vn 0.000012 -1.000000 0.000017
vn 0.000012 -1.000000 0.000017
vn 0.000013 -1.000000 0.000006
vn 0.000013 -1.000000 0.000006
vn 0.000005 -1.000000 0.000001
vn 0.000005 -1.000000 0.000001
vn 0.000000 -1.000000 0.000001
vn 0.000000 -1.000000 0.000001
vn 0.000000 -1.000000 -0.000002
vn 0.000000 -1.000000 -0.000002
vn 0.000000 -1.000000 -0.000004
vn 0.000000 -1.000000 -0.000004
vn 0.000000 -1.000000 0.000000
vn 0.000000 -1.000000 0.000000
vn 0.000000 -1.000000 0.000007
vn 0.000000 -1.000000 0.000007
vn 0.000000 -1.000000 0.000016
vn 0.000000 -1.000000 0.000016
vn 0.000000 -1.000000 0.000010
vn 0.000000 -1.000000 0.000010
vn 0.000000 -1.000000 -0.000001
vn 0.000000 -1.000000 -0.000001
vn 0.000000 -1.000000 0.000001
vn 0.000000 -1.000000 0.000001
s 1
g pPipe1
usemtl initialShadingGroup
f 2/1/1 1/2/2 21/3/3 22/4/4
f 3/5/5 2/1/1 22/4/4 23/6/6
f 4/7/7 3/5/5 23/6/6 24/8/8
f 5/9/9 4/7/7 24/8/8 25/79/10
f 6/84/11 5/9/9 25/79/10 26/78/12
f 7/12/13 6/10/11 26/11/12 27/13/14
f 8/14/15 7/12/13 27/13/14 28/15/16
f 9/16/17 8/14/15 28/15/16 29/17/18
f 10/18/19 9/16/17 29/17/18 30/19/20
f 11/20/21 10/18/19 30/19/20 31/21/22
f 12/22/23 11/20/21 31/21/22 32/23/24
f 13/24/25 12/22/23 32/23/24 33/25/26
f 14/26/27 13/24/25 33/25/26 34/27/28
f 15/28/29 14/26/27 34/27/28 35/29/30
f 16/30/31 15/28/29 35/29/30 36/31/32
f 17/32/33 16/30/31 36/31/32 37/33/34
f 18/34/35 17/32/33 37/33/34 38/35/36
f 19/36/37 18/34/35 38/35/36 39/37/38
f 20/38/39 19/36/37 39/37/38 40/39/40
f 1/2/2 20/38/39 40/39/40 21/3/3
s 2
f 22/4/41 21/3/42 41/40/43 42/41/44
f 23/6/45 22/4/41 42/41/44 43/42/46
f 24/8/47 23/6/45 43/42/46 44/43/48
f 25/79/49 24/8/47 44/43/48 45/81/50
f 26/78/51 25/79/49 45/81/50 46/80/52
f 27/13/53 26/11/51 46/44/52 47/45/54
f 28/15/55 27/13/53 47/45/54 48/46/56
f 29/17/57 28/15/55 48/46/56 49/47/58
f 30/19/59 29/17/57 49/47/58 50/48/60
f 31/21/61 30/19/59 50/48/60 51/49/62
f 32/23/63 31/21/61 51/49/62 52/50/64
f 33/25/65 32/23/63 52/50/64 53/51/66
f 34/27/67 33/25/65 53/51/66 54/52/68
f 35/29/69 34/27/67 54/52/68 55/53/70
f 36/31/71 35/29/69 55/53/70 56/54/72
f 37/33/73 36/31/71 56/54/72 57/55/74
f 38/35/75 37/33/73 57/55/74 58/56/76
f 39/37/77 38/35/75 58/56/76 59/57/78
f 40/39/79 39/37/77 59/57/78 60/58/80
f 21/3/42 40/39/79 60/58/80 41/40/43
s 3
f 42/41/81 41/40/82 61/59/83 62/60/84
f 43/42/85 42/41/81 62/60/84 63/61/86
f 44/43/87 43/42/85 63/61/86 64/62/88
f 45/81/89 44/43/87 64/62/88 65/83/90
f 46/80/91 45/81/89 65/83/90 66/82/92
f 47/45/93 46/44/91 66/63/92 67/64/94
f 48/46/95 47/45/93 67/64/94 68/65/96
f 49/47/97 48/46/95 68/65/96 69/66/98
f 50/48/99 49/47/97 69/66/98 70/67/100
f 51/49/101 50/48/99 70/67/100 71/68/102
f 52/50/103 51/49/101 71/68/102 72/69/104
f 53/51/105 52/50/103 72/69/104 73/70/106
f 54/52/107 53/51/105 73/70/106 74/71/108
f 55/53/109 54/52/107 74/71/108 75/72/110
f 56/54/111 55/53/109 75/72/110 76/73/112
f 57/55/113 56/54/111 76/73/112 77/74/114
f 58/56/115 57/55/113 77/74/114 78/75/116
f 59/57/117 58/56/115 78/75/116 79/76/118
f 60/58/119 59/57/117 79/76/118 80/77/120
f 41/40/82 60/58/119 80/77/120 61/59/83
s 4
f 62/60/121 61/59/122 1/2/123 2/1/124
f 63/61/125 62/60/121 2/1/124 3/5/126
f 64/62/127 63/61/125 3/5/126 4/7/128
f 65/83/129 64/62/127 4/7/128 5/9/130
f 66/82/131 65/83/129 5/9/130 6/84/132
f 67/64/133 66/63/131 6/10/132 7/12/134
f 68/65/135 67/64/133 7/12/134 8/14/136
f 69/66/137 68/65/135 8/14/136 9/16/138
f 70/67/139 69/66/137 9/16/138 10/18/140
f 71/68/141 70/67/139 10/18/140 11/20/142
f 72/69/143 71/68/141 11/20/142 12/22/144
f 73/70/145 72/69/143 12/22/144 13/24/146
f 74/71/147 73/70/145 13/24/146 14/26/148
f 75/72/149 74/71/147 14/26/148 15/28/150
f 76/73/151 75/72/149 15/28/150 16/30/152
f 77/74/153 76/73/151 16/30/152 17/32/154
f 78/75/155 77/74/153 17/32/154 18/34/156
f 79/76/157 78/75/155 18/34/156 19/36/158
f 80/77/159 79/76/157 19/36/158 20/38/160
f 61/59/122 80/77/159 20/38/160 1/2/123
