# This file uses centimeters as units for non-parametric coordinates.

mtllib thick-cylinder-oblique.mtl
g default
v 5.466864 -9.960892 7.084988
v 3.336633 -10.243864 7.698803
v 1.378278 -10.008797 8.749668
v -0.216502 -9.278702 10.134718
v -1.291600 -8.125045 11.718374
v -1.741778 -6.660755 13.345617
v -1.522969 -5.029166 14.857162
v -0.656591 -3.389989 16.105047
v 0.772547 -1.903678 16.967120
v 2.624554 -0.715725 17.358998
v 4.718141 0.057586 17.242319
v 6.848372 0.340558 16.628505
v 8.806728 0.105491 15.577639
v 10.401508 -0.624604 14.192589
v 11.476607 -1.778261 12.608932
v 11.926785 -3.242552 10.981688
v 11.707976 -4.874142 9.470143
v 10.841598 -6.513319 8.222258
v 9.412459 -7.999629 7.360184
v 7.560452 -9.187583 6.968306
v -4.718142 13.942418 -17.242319
v -6.848373 13.659446 -16.628505
v -8.806727 13.894512 -15.577640
v -10.401507 14.624607 -14.192590
v -11.476606 15.778264 -12.608934
v -11.926783 17.242554 -10.981690
v -11.707974 18.874144 -9.470146
v -10.841597 20.513320 -8.222261
v -9.412457 21.999628 -7.360185
v -7.560451 23.187582 -6.968308
v -5.466865 23.960895 -7.084988
v -3.336633 24.243867 -7.698803
v -1.378278 24.008800 -8.749669
v 0.216503 23.278705 -10.134719
v 1.291602 22.125048 -11.718375
v 1.741779 20.660757 -13.345619
v 1.522970 19.029168 -14.857164
v 0.656592 17.389990 -16.105050
v -0.772547 15.903680 -16.967124
v -2.624554 14.715726 -17.359002
v -4.714722 13.896652 -17.288720
v -6.864415 13.611094 -16.669297
v -8.840662 13.848309 -15.608831
v -10.450013 14.585074 -14.211127
v -11.534933 15.749271 -12.613002
v -11.989224 17.226940 -10.970891
v -11.768416 18.873436 -9.445537
v -10.894123 20.527588 -8.186250
v -9.451927 22.027478 -7.316300
v -7.583000 23.226285 -6.920842
v -5.470285 24.006662 -7.038587
v -3.320590 24.292219 -7.658010
v -1.344342 24.055004 -8.718477
v 0.265009 23.318238 -10.116182
v 1.349930 22.154041 -11.714308
v 1.804220 20.676372 -13.356419
v 1.583412 19.029875 -14.881774
v 0.709117 17.375722 -16.141060
v -0.733079 15.875832 -17.011011
v -2.602007 14.677024 -17.406469
v 5.470284 -10.006658 7.038588
v 3.320590 -10.292215 7.658011
v 1.344344 -10.055001 8.718477
v -0.265007 -9.318235 10.116181
v -1.349928 -8.154038 11.714306
v -1.804219 -6.676370 13.356416
v -1.583410 -5.029874 14.881771
v -0.709118 -3.375721 16.141058
v 0.733079 -1.875831 17.011008
v 2.602006 -0.677024 17.406466
v 4.714721 0.103353 17.288721
v 6.864415 0.388910 16.669297
v 8.840663 0.151695 15.608830
v 10.450014 -0.585071 14.211125
v 11.534936 -1.749268 12.613000
v 11.989226 -3.226938 10.970889
v 11.768417 -4.873434 9.445534
v 10.894123 -6.527588 8.186247
v 9.451926 -8.027478 7.316297
v 7.582999 -9.226285 6.920839
vt 0.000000 0.199984
vt 0.000000 0.249984
vt 1.000000 0.249984
vt 1.000000 0.199984
vt 0.000000 0.149984
vt 1.000000 0.149984
vt 0.000000 0.099984
vt 1.000000 0.099984
vt 0.000000 0.049984
vt 0.000000 0.999984
vt 1.000000 0.999984
vt 0.000000 0.949984
vt 1.000000 0.949984
vt 0.000000 0.899984
vt 1.000000 0.899984
vt 0.000000 0.849984
vt 1.000000 0.849984
vt 0.000000 0.799984
vt 1.000000 0.799984
vt 0.000000 0.749984
vt 1.000000 0.749984
vt 0.000000 0.699984
vt 1.000000 0.699984
vt 0.000000 0.649984
vt 1.000000 0.649984
vt 0.000000 0.599984
vt 1.000000 0.599984
vt 0.000000 0.549984
vt 1.000000 0.549984
vt 0.000000 0.499984
vt 1.000000 0.499984
vt 0.000000 0.449984
vt 1.000000 0.449984
vt 0.000000 0.399984
vt 1.000000 0.399984
vt 0.000000 0.349984
vt 1.000000 0.349984
vt 0.000000 0.299984
vt 1.000000 0.299984
vt 1.000000 0.249984
vt 1.000000 0.199984
vt 1.000000 0.149984
vt 1.000000 0.099984
vt 1.000000 0.999984
vt 1.000000 0.949984
vt 1.000000 0.899984
vt 1.000000 0.849984
vt 1.000000 0.799984
vt 1.000000 0.749984
vt 1.000000 0.699984
vt 1.000000 0.649984
vt 1.000000 0.599984
vt 1.000000 0.549984
vt 1.000000 0.499984
vt 1.000000 0.449984
vt 1.000000 0.399984
vt 1.000000 0.349984
vt 1.000000 0.299984
vt 0.000000 0.249984
vt 0.000000 0.199984
vt 0.000000 0.149984
vt 0.000000 0.099984
vt 0.000000 0.999984
vt 0.000000 0.949984
vt 0.000000 0.899984
vt 0.000000 0.849984
vt 0.000000 0.799984
vt 0.000000 0.749984
vt 0.000000 0.699984
vt 0.000000 0.649984
vt 0.000000 0.599984
vt 0.000000 0.549984
vt 0.000000 0.499984
vt 0.000000 0.449984
vt 0.000000 0.399984
vt 0.000000 0.349984
vt 0.000000 0.299984
vt 1.000000 -0.000016
vt 1.000000 0.049984
vt 1.000000 -0.000016
vt 1.000000 0.049984
vt 0.000000 -0.000016
vt 0.000000 0.049984
vt 0.000000 -0.000016
vn 0.245809 0.740873 0.625048
vn -0.052407 0.701259 0.710978
vn -0.052407 0.701259 0.710978
vn 0.245809 0.740873 0.625048
vn 0.519966 0.707965 0.477934
vn 0.519966 0.707965 0.477934
vn 0.743224 0.605757 0.284037
vn 0.743224 0.605757 0.284037
vn 0.893730 0.444253 0.062336
vn 0.893730 0.444253 0.062336
vn 0.956752 0.239262 -0.165467
vn 0.956752 0.239262 -0.165467
vn 0.926120 0.010851 -0.377073
vn 0.926120 0.010851 -0.377073
vn 0.804833 -0.218622 -0.551768
vn 0.804833 -0.218622 -0.551768
vn 0.604764 -0.426695 -0.672452
vn 0.604764 -0.426695 -0.672452
vn 0.345496 -0.593000 -0.727312
vn 0.345496 -0.593000 -0.727312
vn 0.052408 -0.701259 -0.710978
vn 0.052408 -0.701259 -0.710978
vn -0.245809 -0.740873 -0.625048
vn -0.245809 -0.740873 -0.625048
vn -0.519966 -0.707965 -0.477934
vn -0.519966 -0.707965 -0.477934
vn -0.743224 -0.605757 -0.284037
vn -0.743224 -0.605757 -0.284037
vn -0.893730 -0.444253 -0.062336
vn -0.893730 -0.444253 -0.062336
vn -0.956752 -0.239262 0.165467
vn -0.956752 -0.239262 0.165467
vn -0.926120 -0.010851 0.377072
vn -0.926120 -0.010851 0.377072
vn -0.804833 0.218622 0.551768
vn -0.804833 0.218622 0.551768
vn -0.604764 0.426695 0.672452
vn -0.604764 0.426695 0.672452
vn -0.345495 0.593001 0.727312
vn -0.345495 0.593001 0.727312
vn -0.286146 0.671558 -0.683470
vn -0.286146 0.671558 -0.683470
vn -0.286146 0.671558 -0.683470
vn -0.286146 0.671558 -0.683470
vn -0.286145 0.671558 -0.683470
vn -0.286145 0.671558 -0.683470
vn -0.286137 0.671560 -0.683471
vn -0.286137 0.671560 -0.683471
vn -0.286135 0.671560 -0.683472
vn -0.286135 0.671560 -0.683472
vn -0.286144 0.671558 -0.683470
vn -0.286144 0.671558 -0.683470
vn -0.286147 0.671557 -0.683470
vn -0.286147 0.671557 -0.683470
vn -0.286135 0.671556 -0.683476
vn -0.286135 0.671556 -0.683476
vn -0.286123 0.671547 -0.683490
vn -0.286123 0.671547 -0.683490
vn -0.286132 0.671542 -0.683490
vn -0.286132 0.671542 -0.683490
vn -0.286143 0.671552 -0.683477
vn -0.286143 0.671552 -0.683477
vn -0.286145 0.671558 -0.683470
vn -0.286145 0.671558 -0.683470
vn -0.286148 0.671557 -0.683469
vn -0.286148 0.671557 -0.683469
vn -0.286149 0.671557 -0.683469
vn -0.286149 0.671557 -0.683469
vn -0.286145 0.671558 -0.683470
vn -0.286145 0.671558 -0.683470
vn -0.286149 0.671557 -0.683469
vn -0.286149 0.671557 -0.683469
vn -0.286161 0.671554 -0.683467
vn -0.286161 0.671554 -0.683467
vn -0.286155 0.671555 -0.683468
vn -0.286155 0.671555 -0.683468
vn -0.286145 0.671558 -0.683470
vn -0.286145 0.671558 -0.683470
vn -0.286145 0.671558 -0.683470
vn -0.286145 0.671558 -0.683470
vn -0.245809 -0.740873 -0.625048
vn 0.052407 -0.701259 -0.710978
vn 0.052407 -0.701259 -0.710978
vn -0.245809 -0.740873 -0.625048
vn -0.519966 -0.707965 -0.477934
vn -0.519966 -0.707965 -0.477934
vn -0.743224 -0.605757 -0.284037
vn -0.743224 -0.605757 -0.284037
vn -0.893730 -0.444253 -0.062336
vn -0.893730 -0.444253 -0.062336
vn -0.956752 -0.239262 0.165467
vn -0.956752 -0.239262 0.165467
vn -0.926120 -0.010851 0.377072
vn -0.926120 -0.010851 0.377072
vn -0.804833 0.218622 0.551768
vn -0.804833 0.218622 0.551768
vn -0.604764 0.426695 0.672452
vn -0.604764 0.426695 0.672452
vn -0.345496 0.593000 0.727312
vn -0.345496 0.593000 0.727312
vn -0.052408 0.701259 0.710978
vn -0.052408 0.701259 0.710978
vn 0.245810 0.740873 0.625048
vn 0.245810 0.740873 0.625048
vn 0.519966 0.707965 0.477934
vn 0.519966 0.707965 0.477934
vn 0.743224 0.605757 0.284037
vn 0.743224 0.605757 0.284037
vn 0.893730 0.444253 0.062336
vn 0.893730 0.444253 0.062336
vn 0.956752 0.239262 -0.165467
vn 0.956752 0.239262 -0.165467
vn 0.926120 0.010851 -0.377073
vn 0.926120 0.010851 -0.377073
vn 0.804833 -0.218622 -0.551768
vn 0.804833 -0.218622 -0.551768
vn 0.604764 -0.426695 -0.672452
vn 0.604764 -0.426695 -0.672452
vn 0.345495 -0.593001 -0.727312
vn 0.345495 -0.593001 -0.727312
vn 0.286145 -0.671558 0.683470
vn 0.286146 -0.671558 0.683470
vn 0.286146 -0.671558 0.683470
vn 0.286145 -0.671558 0.683470
vn 0.286145 -0.671558 0.683470
vn 0.286145 -0.671558 0.683470
vn 0.286142 -0.671558 0.683470
vn 0.286142 -0.671558 0.683470
vn 0.286135 -0.671560 0.683472
vn 0.286135 -0.671560 0.683472
vn 0.286147 -0.671557 0.683470
vn 0.286147 -0.671557 0.683470
vn 0.286144 -0.671558 0.683470
vn 0.286144 -0.671558 0.683470
vn 0.286146 -0.671560 0.683468
vn 0.286146 -0.671560 0.683468
vn 0.286163 -0.671562 0.683459
vn 0.286163 -0.671562 0.683459
vn 0.286152 -0.671565 0.683459
vn 0.286152 -0.671565 0.683459
vn 0.286146 -0.671561 0.683466
vn 0.286146 -0.671561 0.683466
vn 0.286146 -0.671558 0.683470
vn 0.286146 -0.671558 0.683470
vn 0.286143 -0.671558 0.683470
vn 0.286143 -0.671558 0.683470
vn 0.286142 -0.671559 0.683470
vn 0.286142 -0.671559 0.683470
vn 0.286145 -0.671558 0.683470
vn 0.286145 -0.671558 0.683470
vn 0.286152 -0.671556 0.683469
vn 0.286152 -0.671556 0.683469
vn 0.286161 -0.671554 0.683467
vn 0.286161 -0.671554 0.683467
vn 0.286155 -0.671555 0.683468
vn 0.286155 -0.671555 0.683468
vn 0.286145 -0.671558 0.683470
vn 0.286145 -0.671558 0.683470
vn 0.286146 -0.671558 0.683470
vn 0.286146 -0.671558 0.683470
s 1
g pPipe1
usemtl initialShadingGroup
f 2/1/1 1/2/2 21/3/3 22/4/4
f 3/5/5 2/1/1 22/4/4 23/6/6
f 4/7/7 3/5/5 23/6/6 24/8/8
f 5/9/9 4/7/7 24/8/8 25/79/10
f 6/84/11 5/9/9 25/79/10 26/78/12
f 7/12/13 6/10/11 26/11/12 27/13/14
f 8/14/15 7/12/13 27/13/14 28/15/16
f 9/16/17 8/14/15 28/15/16 29/17/18
f 10/18/19 9/16/17 29/17/18 30/19/20
f 11/20/21 10/18/19 30/19/20 31/21/22
f 12/22/23 11/20/21 31/21/22 32/23/24
f 13/24/25 12/22/23 32/23/24 33/25/26
f 14/26/27 13/24/25 33/25/26 34/27/28
f 15/28/29 14/26/27 34/27/28 35/29/30
f 16/30/31 15/28/29 35/29/30 36/31/32
f 17/32/33 16/30/31 36/31/32 37/33/34
f 18/34/35 17/32/33 37/33/34 38/35/36
f 19/36/37 18/34/35 38/35/36 39/37/38
f 20/38/39 19/36/37 39/37/38 40/39/40
f 1/2/2 20/38/39 40/39/40 21/3/3
s 2
f 22/4/41 21/3/42 41/40/43 42/41/44
f 23/6/45 22/4/41 42/41/44 43/42/46
f 24/8/47 23/6/45 43/42/46 44/43/48
f 25/79/49 24/8/47 44/43/48 45/81/50
f 26/78/51 25/79/49 45/81/50 46/80/52
f 27/13/53 26/11/51 46/44/52 47/45/54
f 28/15/55 27/13/53 47/45/54 48/46/56
f 29/17/57 28/15/55 48/46/56 49/47/58
f 30/19/59 29/17/57 49/47/58 50/48/60
f 31/21/61 30/19/59 50/48/60 51/49/62
f 32/23/63 31/21/61 51/49/62 52/50/64
f 33/25/65 32/23/63 52/50/64 53/51/66
f 34/27/67 33/25/65 53/51/66 54/52/68
f 35/29/69 34/27/67 54/52/68 55/53/70
f 36/31/71 35/29/69 55/53/70 56/54/72
f 37/33/73 36/31/71 56/54/72 57/55/74
f 38/35/75 37/33/73 57/55/74 58/56/76
f 39/37/77 38/35/75 58/56/76 59/57/78
f 40/39/79 39/37/77 59/57/78 60/58/80
f 21/3/42 40/39/79 60/58/80 41/40/43
s 3
f 42/41/81 41/40/82 61/59/83 62/60/84
f 43/42/85 42/41/81 62/60/84 63/61/86
f 44/43/87 43/42/85 63/61/86 64/62/88
f 45/81/89 44/43/87 64/62/88 65/83/90
f 46/80/91 45/81/89 65/83/90 66/82/92
f 47/45/93 46/44/91 66/63/92 67/64/94
f 48/46/95 47/45/93 67/64/94 68/65/96
f 49/47/97 48/46/95 68/65/96 69/66/98
f 50/48/99 49/47/97 69/66/98 70/67/100
f 51/49/101 50/48/99 70/67/100 71/68/102
f 52/50/103 51/49/101 71/68/102 72/69/104
f 53/51/105 52/50/103 72/69/104 73/70/106
f 54/52/107 53/51/105 73/70/106 74/71/108
f 55/53/109 54/52/107 74/71/108 75/72/110
f 56/54/111 55/53/109 75/72/110 76/73/112
f 57/55/113 56/54/111 76/73/112 77/74/114
f 58/56/115 57/55/113 77/74/114 78/75/116
f 59/57/117 58/56/115 78/75/116 79/76/118
f 60/58/119 59/57/117 79/76/118 80/77/120
f 41/40/82 60/58/119 80/77/120 61/59/83
s 4
f 62/60/121 61/59/122 1/2/123 2/1/124
f 63/61/125 62/60/121 2/1/124 3/5/126
f 64/62/127 63/61/125 3/5/126 4/7/128
f 65/83/129 64/62/127 4/7/128 5/9/130
f 66/82/131 65/83/129 5/9/130 6/84/132
f 67/64/133 66/63/131 6/10/132 7/12/134
f 68/65/135 67/64/133 7/12/134 8/14/136
f 69/66/137 68/65/135 8/14/136 9/16/138
f 70/67/139 69/66/137 9/16/138 10/18/140
f 71/68/141 70/67/139 10/18/140 11/20/142
f 72/69/143 71/68/141 11/20/142 12/22/144
f 73/70/145 72/69/143 12/22/144 13/24/146
f 74/71/147 73/70/145 13/24/146 14/26/148
f 75/72/149 74/71/147 14/26/148 15/28/150
f 76/73/151 75/72/149 15/28/150 16/30/152
f 77/74/153 76/73/151 16/30/152 17/32/154
f 78/75/155 77/74/153 17/32/154 18/34/156
f 79/76/157 78/75/155 18/34/156 19/36/158
f 80/77/159 79/76/157 19/36/158 20/38/160
f 61/59/122 80/77/159 20/38/160 1/2/123
