# This file uses centimeters as units for non-parametric coordinates.

mtllib thick-cylinder-transverse1.mtl
g default
v 6.834198 0.419315 16.665648
v 4.714064 -0.038230 17.204547
v 2.559728 0.202598 17.748201
v 0.582069 1.118227 18.243395
v -1.025324 2.619028 18.641655
v -2.105109 4.558091 18.903997
v -2.551589 6.745609 19.004741
v -2.321060 8.967451 18.934026
v -1.436086 11.006128 18.698772
v 0.016704 12.662081 18.322010
v 1.895101 13.773214 17.840620
v 4.015235 14.230759 17.301721
v 6.169573 13.989930 16.758066
v 8.147232 13.074301 16.262872
v 9.754626 11.573500 15.864612
v 10.834412 9.634436 15.602270
v 11.280892 7.446918 15.501526
v 11.050362 5.225075 15.572241
v 10.165389 3.186397 15.807494
v 8.712598 1.530444 16.184256
v -1.895103 0.226789 -17.840622
v -4.015237 -0.230757 -17.301723
v -6.169573 0.010072 -16.758069
v -8.147232 0.925701 -16.262875
v -9.754625 2.426501 -15.864615
v -10.834410 4.365565 -15.602273
v -11.280890 6.553083 -15.501529
v -11.050361 8.774924 -15.572244
v -10.165387 10.813602 -15.807494
v -8.712597 12.469555 -16.184257
v -6.834200 13.580687 -16.665650
v -4.714066 14.038233 -17.204549
v -2.559728 13.797404 -17.748204
v -0.582069 12.881775 -18.243398
v 1.025325 11.380974 -18.641658
v 2.105111 9.441910 -18.904000
v 2.551591 7.254391 -19.004744
v 2.321061 5.032548 -18.934029
v 1.436088 2.993871 -18.698776
v -0.016703 1.337917 -18.322014
v -1.872540 0.165786 -17.845989
v -4.012044 -0.295940 -17.302167
v -6.186064 -0.052911 -16.753546
v -8.181791 0.871083 -16.253828
v -9.803870 2.385596 -15.851929
v -10.893521 4.342375 -15.587190
v -11.344080 6.549879 -15.485525
v -11.111445 8.792021 -15.556887
v -10.218385 10.849325 -15.794289
v -8.752322 12.520407 -16.174493
v -6.856763 13.641691 -16.660283
v -4.717257 14.103417 -17.204105
v -2.543236 13.860387 -17.752727
v -0.547509 12.936392 -18.252445
v 1.074571 11.421879 -18.654344
v 2.164221 9.465099 -18.919083
v 2.614781 7.257594 -19.020748
v 2.382144 5.015451 -18.949386
v 1.489085 2.958147 -18.711984
v 0.023021 1.287064 -18.331779
v 6.856761 0.358312 16.660281
v 4.717257 -0.103413 17.204103
v 2.543237 0.139615 17.752724
v 0.547510 1.063610 18.252442
v -1.074569 2.578122 18.654341
v -2.164220 4.534902 18.919080
v -2.614779 6.742405 19.020745
v -2.382143 8.984547 18.949384
v -1.489084 11.041851 18.711981
v -0.023021 12.712934 18.331777
v 1.872539 13.834218 17.845987
v 4.012044 14.295943 17.302165
v 6.186065 14.052913 16.753543
v 8.181792 13.128919 16.253825
v 9.803872 11.614406 15.851926
v 10.893523 9.657625 15.587187
v 11.344082 7.450120 15.485522
v 11.111445 5.207978 15.556884
v 10.218386 3.150674 15.794286
v 8.752322 1.479591 16.174491
vt 0.000000 0.199984
vt 0.000000 0.249984
vt 1.000000 0.249984
vt 1.000000 0.199984
vt 0.000000 0.149984
vt 1.000000 0.149984
vt 0.000000 0.099984
vt 1.000000 0.099984
vt 0.000000 0.049984
vt 0.000000 0.999984
vt 1.000000 0.999984
vt 0.000000 0.949984
vt 1.000000 0.949984
vt 0.000000 0.899984
vt 1.000000 0.899984
vt 0.000000 0.849984
vt 1.000000 0.849984
vt 0.000000 0.799984
vt 1.000000 0.799984
vt 0.000000 0.749984
vt 1.000000 0.749984
vt 0.000000 0.699984
vt 1.000000 0.699984
vt 0.000000 0.649984
vt 1.000000 0.649984
vt 0.000000 0.599984
vt 1.000000 0.599984
vt 0.000000 0.549984
vt 1.000000 0.549984
vt 0.000000 0.499984
vt 1.000000 0.499984
vt 0.000000 0.449984
vt 1.000000 0.449984
vt 0.000000 0.399984
vt 1.000000 0.399984
vt 0.000000 0.349984
vt 1.000000 0.349984
vt 0.000000 0.299984
vt 1.000000 0.299984
vt 1.000000 0.249984
vt 1.000000 0.199984
vt 1.000000 0.149984
vt 1.000000 0.099984
vt 1.000000 0.999984
vt 1.000000 0.949984
vt 1.000000 0.899984
vt 1.000000 0.849984
vt 1.000000 0.799984
vt 1.000000 0.749984
vt 1.000000 0.699984
vt 1.000000 0.649984
vt 1.000000 0.599984
vt 1.000000 0.549984
vt 1.000000 0.499984
vt 1.000000 0.449984
vt 1.000000 0.399984
vt 1.000000 0.349984
vt 1.000000 0.299984
vt 0.000000 0.249984
vt 0.000000 0.199984
vt 0.000000 0.149984
vt 0.000000 0.099984
vt 0.000000 0.999984
vt 0.000000 0.949984
vt 0.000000 0.899984
vt 0.000000 0.849984
vt 0.000000 0.799984
vt 0.000000 0.749984
vt 0.000000 0.699984
vt 0.000000 0.649984
vt 0.000000 0.599984
vt 0.000000 0.549984
vt 0.000000 0.499984
vt 0.000000 0.449984
vt 0.000000 0.399984
vt 0.000000 0.349984
vt 0.000000 0.299984
vt 1.000000 -0.000016
vt 1.000000 0.049984
vt 1.000000 -0.000016
vt 1.000000 0.049984
vt 0.000000 -0.000016
vt 0.000000 0.049984
vt 0.000000 -0.000016
vn -0.048916 0.998780 0.006802
vn -0.345719 0.934727 0.082244
vn -0.345719 0.934727 0.082244
vn -0.048916 0.998780 0.006802
vn 0.252677 0.965065 -0.069306
vn 0.252677 0.965065 -0.069306
vn 0.529535 0.836884 -0.138630
vn 0.529535 0.836884 -0.138630
vn 0.754559 0.626782 -0.194383
vn 0.754559 0.626782 -0.194383
vn 0.905722 0.355326 -0.231109
vn 0.905722 0.355326 -0.231109
vn 0.968226 0.049089 -0.245213
vn 0.968226 0.049089 -0.245213
vn 0.935953 -0.261953 -0.235313
vn 0.935953 -0.261953 -0.235313
vn 0.812063 -0.547354 -0.202380
vn 0.812063 -0.547354 -0.202380
vn 0.608683 -0.779176 -0.149635
vn 0.608683 -0.779176 -0.149635
vn 0.345720 -0.934727 -0.082244
vn 0.345720 -0.934727 -0.082244
vn 0.048916 -0.998780 -0.006802
vn 0.048916 -0.998780 -0.006802
vn -0.252677 -0.965065 0.069306
vn -0.252677 -0.965065 0.069306
vn -0.529535 -0.836884 0.138630
vn -0.529535 -0.836884 0.138630
vn -0.754559 -0.626782 0.194383
vn -0.754559 -0.626782 0.194383
vn -0.905721 -0.355327 0.231109
vn -0.905721 -0.355327 0.231109
vn -0.968226 -0.049089 0.245213
vn -0.968226 -0.049089 0.245213
vn -0.935953 0.261953 0.235313
vn -0.935953 0.261953 0.235313
vn -0.812063 0.547354 0.202380
vn -0.812063 0.547354 0.202380
vn -0.608682 0.779176 0.149635
vn -0.608682 0.779176 0.149635
vn -0.245248 -0.005409 -0.969445
vn -0.245248 -0.005409 -0.969445
vn -0.245248 -0.005409 -0.969445
vn -0.245248 -0.005409 -0.969445
vn -0.245247 -0.005409 -0.969445
vn -0.245247 -0.005409 -0.969445
vn -0.245240 -0.005406 -0.969447
vn -0.245240 -0.005406 -0.969447
vn -0.245238 -0.005405 -0.969448
vn -0.245238 -0.005405 -0.969448
vn -0.245246 -0.005409 -0.969446
vn -0.245246 -0.005409 -0.969446
vn -0.245249 -0.005410 -0.969445
vn -0.245249 -0.005410 -0.969445
vn -0.245236 -0.005411 -0.969448
vn -0.245236 -0.005411 -0.969448
vn -0.245220 -0.005423 -0.969452
vn -0.245220 -0.005423 -0.969452
vn -0.245228 -0.005429 -0.969450
vn -0.245228 -0.005429 -0.969450
vn -0.245243 -0.005417 -0.969447
vn -0.245243 -0.005417 -0.969447
vn -0.245247 -0.005409 -0.969446
vn -0.245247 -0.005409 -0.969446
vn -0.245251 -0.005410 -0.969445
vn -0.245251 -0.005410 -0.969445
vn -0.245252 -0.005411 -0.969444
vn -0.245252 -0.005411 -0.969444
vn -0.245248 -0.005409 -0.969445
vn -0.245248 -0.005409 -0.969445
vn -0.245251 -0.005410 -0.969444
vn -0.245251 -0.005410 -0.969444
vn -0.245262 -0.005415 -0.969442
vn -0.245262 -0.005415 -0.969442
vn -0.245257 -0.005413 -0.969443
vn -0.245257 -0.005413 -0.969443
vn -0.245247 -0.005409 -0.969446
vn -0.245247 -0.005409 -0.969446
vn -0.245247 -0.005409 -0.969446
vn -0.245247 -0.005409 -0.969446
vn 0.048916 -0.998780 -0.006802
vn 0.345719 -0.934727 -0.082244
vn 0.345719 -0.934727 -0.082244
vn 0.048916 -0.998780 -0.006802
vn -0.252677 -0.965065 0.069306
vn -0.252677 -0.965065 0.069306
vn -0.529535 -0.836884 0.138630
vn -0.529535 -0.836884 0.138630
vn -0.754559 -0.626782 0.194383
vn -0.754559 -0.626782 0.194383
vn -0.905721 -0.355327 0.231109
vn -0.905721 -0.355327 0.231109
vn -0.968226 -0.049089 0.245213
vn -0.968226 -0.049089 0.245213
vn -0.935953 0.261953 0.235313
vn -0.935953 0.261953 0.235313
vn -0.812063 0.547354 0.202380
vn -0.812063 0.547354 0.202380
vn -0.608683 0.779176 0.149635
vn -0.608683 0.779176 0.149635
vn -0.345720 0.934727 0.082244
vn -0.345720 0.934727 0.082244
vn -0.048916 0.998780 0.006802
vn -0.048916 0.998780 0.006802
vn 0.252677 0.965065 -0.069306
vn 0.252677 0.965065 -0.069306
vn 0.529535 0.836884 -0.138630
vn 0.529535 0.836884 -0.138630
vn 0.754559 0.626782 -0.194383
vn 0.754559 0.626782 -0.194383
vn 0.905722 0.355326 -0.231109
vn 0.905722 0.355326 -0.231109
vn 0.968226 0.049089 -0.245213
vn 0.968226 0.049089 -0.245213
vn 0.935953 -0.261953 -0.235313
vn 0.935953 -0.261953 -0.235313
vn 0.812063 -0.547354 -0.202380
vn 0.812063 -0.547354 -0.202380
vn 0.608681 -0.779177 -0.149635
vn 0.608681 -0.779177 -0.149635
vn 0.245247 0.005409 0.969446
vn 0.245248 0.005409 0.969445
vn 0.245248 0.005409 0.969445
vn 0.245247 0.005409 0.969446
vn 0.245247 0.005409 0.969445
vn 0.245247 0.005409 0.969445
vn 0.245245 0.005408 0.969446
vn 0.245245 0.005408 0.969446
vn 0.245238 0.005405 0.969448
vn 0.245238 0.005405 0.969448
vn 0.245249 0.005409 0.969445
vn 0.245249 0.005409 0.969445
vn 0.245247 0.005409 0.969446
vn 0.245247 0.005409 0.969446
vn 0.245249 0.005406 0.969445
vn 0.245249 0.005406 0.969445
vn 0.245267 0.005404 0.969440
vn 0.245267 0.005404 0.969440
vn 0.245258 0.005399 0.969443
vn 0.245258 0.005399 0.969443
vn 0.245250 0.005405 0.969445
vn 0.245250 0.005405 0.969445
vn 0.245248 0.005409 0.969445
vn 0.245248 0.005409 0.969445
vn 0.245246 0.005408 0.969446
vn 0.245246 0.005408 0.969446
vn 0.245244 0.005408 0.969446
vn 0.245244 0.005408 0.969446
vn 0.245248 0.005409 0.969445
vn 0.245248 0.005409 0.969445
vn 0.245254 0.005411 0.969444
vn 0.245254 0.005411 0.969444
vn 0.245262 0.005415 0.969442
vn 0.245262 0.005415 0.969442
vn 0.245257 0.005413 0.969443
vn 0.245257 0.005413 0.969443
vn 0.245247 0.005409 0.969446
vn 0.245247 0.005409 0.969446
vn 0.245248 0.005409 0.969445
vn 0.245248 0.005409 0.969445
s 1
g pPipe1
usemtl initialShadingGroup
f 2/1/1 1/2/2 21/3/3 22/4/4
f 3/5/5 2/1/1 22/4/4 23/6/6
f 4/7/7 3/5/5 23/6/6 24/8/8
f 5/9/9 4/7/7 24/8/8 25/79/10
f 6/84/11 5/9/9 25/79/10 26/78/12
f 7/12/13 6/10/11 26/11/12 27/13/14
f 8/14/15 7/12/13 27/13/14 28/15/16
f 9/16/17 8/14/15 28/15/16 29/17/18
f 10/18/19 9/16/17 29/17/18 30/19/20
f 11/20/21 10/18/19 30/19/20 31/21/22
f 12/22/23 11/20/21 31/21/22 32/23/24
f 13/24/25 12/22/23 32/23/24 33/25/26
f 14/26/27 13/24/25 33/25/26 34/27/28
f 15/28/29 14/26/27 34/27/28 35/29/30
f 16/30/31 15/28/29 35/29/30 36/31/32
f 17/32/33 16/30/31 36/31/32 37/33/34
f 18/34/35 17/32/33 37/33/34 38/35/36
f 19/36/37 18/34/35 38/35/36 39/37/38
f 20/38/39 19/36/37 39/37/38 40/39/40
f 1/2/2 20/38/39 40/39/40 21/3/3
s 2
f 22/4/41 21/3/42 41/40/43 42/41/44
f 23/6/45 22/4/41 42/41/44 43/42/46
f 24/8/47 23/6/45 43/42/46 44/43/48
f 25/79/49 24/8/47 44/43/48 45/81/50
f 26/78/51 25/79/49 45/81/50 46/80/52
f 27/13/53 26/11/51 46/44/52 47/45/54
f 28/15/55 27/13/53 47/45/54 48/46/56
f 29/17/57 28/15/55 48/46/56 49/47/58
f 30/19/59 29/17/57 49/47/58 50/48/60
f 31/21/61 30/19/59 50/48/60 51/49/62
f 32/23/63 31/21/61 51/49/62 52/50/64
f 33/25/65 32/23/63 52/50/64 53/51/66
f 34/27/67 33/25/65 53/51/66 54/52/68
f 35/29/69 34/27/67 54/52/68 55/53/70
f 36/31/71 35/29/69 55/53/70 56/54/72
f 37/33/73 36/31/71 56/54/72 57/55/74
f 38/35/75 37/33/73 57/55/74 58/56/76
f 39/37/77 38/35/75 58/56/76 59/57/78
f 40/39/79 39/37/77 59/57/78 60/58/80
f 21/3/42 40/39/79 60/58/80 41/40/43
s 3
f 42/41/81 41/40/82 61/59/83 62/60/84
f 43/42/85 42/41/81 62/60/84 63/61/86
f 44/43/87 43/42/85 63/61/86 64/62/88
f 45/81/89 44/43/87 64/62/88 65/83/90
f 46/80/91 45/81/89 65/83/90 66/82/92
f 47/45/93 46/44/91 66/63/92 67/64/94
f 48/46/95 47/45/93 67/64/94 68/65/96
f 49/47/97 48/46/95 68/65/96 69/66/98
f 50/48/99 49/47/97 69/66/98 70/67/100
f 51/49/101 50/48/99 70/67/100 71/68/102
f 52/50/103 51/49/101 71/68/102 72/69/104
f 53/51/105 52/50/103 72/69/104 73/70/106
f 54/52/107 53/51/105 73/70/106 74/71/108
f 55/53/109 54/52/107 74/71/108 75/72/110
f 56/54/111 55/53/109 75/72/110 76/73/112
f 57/55/113 56/54/111 76/73/112 77/74/114
f 58/56/115 57/55/113 77/74/114 78/75/116
f 59/57/117 58/56/115 78/75/116 79/76/118
f 60/58/119 59/57/117 79/76/118 80/77/120
f 41/40/82 60/58/119 80/77/120 61/59/83
s 4
f 62/60/121 61/59/122 1/2/123 2/1/124
f 63/61/125 62/60/121 2/1/124 3/5/126
f 64/62/127 63/61/125 3/5/126 4/7/128
f 65/83/129 64/62/127 4/7/128 5/9/130
f 66/82/131 65/83/129 5/9/130 6/84/132
f 67/64/133 66/63/131 6/10/132 7/12/134
f 68/65/135 67/64/133 7/12/134 8/14/136
f 69/66/137 68/65/135 8/14/136 9/16/138
f 70/67/139 69/66/137 9/16/138 10/18/140
f 71/68/141 70/67/139 10/18/140 11/20/142
f 72/69/143 71/68/141 11/20/142 12/22/144
f 73/70/145 72/69/143 12/22/144 13/24/146
f 74/71/147 73/70/145 13/24/146 14/26/148
f 75/72/149 74/71/147 14/26/148 15/28/150
f 76/73/151 75/72/149 15/28/150 16/30/152
f 77/74/153 76/73/151 16/30/152 17/32/154
f 78/75/155 77/74/153 17/32/154 18/34/156
f 79/76/157 78/75/155 18/34/156 19/36/158
f 80/77/159 79/76/157 19/36/158 20/38/160
f 61/59/122 80/77/159 20/38/160 1/2/123
